<svg width="137" height="114" viewBox="0 0 137 114" fill="none" xmlns="http://www.w3.org/2000/svg">
<path fill-rule="evenodd" clip-rule="evenodd" d="M95.4362 108.831C95.7582 110.426 95.947 112.07 95.9904 113.75H136.832L130.171 102.287L95.4362 108.831ZM94.686 105.921L128.573 99.5361L122.096 88.3885L93.8208 103.551C94.1429 104.324 94.4319 105.115 94.686 105.921ZM92.5243 100.849L120.592 85.7987L113.446 73.5002L89.8014 96.7529C90.8215 98.0332 91.7337 99.4032 92.5243 100.849ZM87.816 94.5122L111.895 70.8317L103.206 55.8761L83.892 91.1829C85.299 92.1738 86.6123 93.2889 87.816 94.5122ZM89.4761 32.2462L101.449 52.8529L81.354 89.588C79.9726 88.8181 78.5205 88.1598 77.0099 87.6252L89.4761 32.2462ZM87.2613 28.4345L74.1285 86.7749C73.106 86.5313 72.062 86.3428 71 86.2128V0.447266L87.2613 28.4345ZM21.7941 76.2404L15.0363 87.8712L42.2392 101.291C43.0056 99.8285 43.8955 98.4404 44.8948 97.141L21.7941 76.2404ZM40.9888 104.02L13.5256 90.4712L7.69702 100.503L40.2445 106.144C40.4652 105.424 40.7137 104.715 40.9888 104.02ZM23.3348 73.5887L46.8465 94.8611C48.1082 93.5346 49.4964 92.3296 50.9918 91.2652L31.8092 59.0036L23.3348 73.5887ZM33.5342 56.0347L45.6333 35.211L58.4217 87.4764C56.7112 88.0508 55.0733 88.783 53.525 89.6558L33.5342 56.0347ZM61.3137 86.6733L47.8066 31.4706L65 1.87926V86.1081C63.7462 86.2171 62.5157 86.4072 61.3137 86.6733ZM0 113.75L6.08981 103.269L39.518 109.063C39.2239 110.586 39.051 112.151 39.0097 113.75H0Z" fill="white"/>
</svg>
